<svg width="23" height="23" viewBox="0 0 23 23" fill="none" xmlns="http://www.w3.org/2000/svg">
<g id="Actions &#38; UI/edit-alt">
<path id="Vector" d="M5.36854 16.8355H9.16222C9.27997 16.8362 9.3967 16.8132 9.50572 16.7677C9.61473 16.7223 9.71388 16.6553 9.79748 16.5706L15.9891 10.2409L18.5301 7.70175C18.614 7.61684 18.6805 7.51582 18.726 7.40451C18.7714 7.29321 18.7948 7.17382 18.7948 7.05325C18.7948 6.93267 18.7714 6.81329 18.726 6.70198C18.6805 6.59068 18.614 6.48966 18.5301 6.40475L14.7364 2.48636C14.6533 2.40075 14.5543 2.3328 14.4453 2.28643C14.3362 2.24006 14.2193 2.21619 14.1012 2.21619C13.9831 2.21619 13.8661 2.24006 13.7571 2.28643C13.648 2.3328 13.5491 2.40075 13.4659 2.48636L10.9427 5.07122L4.73327 11.4009C4.65035 11.4863 4.58474 11.5875 4.54022 11.6988C4.49569 11.8101 4.47312 11.9292 4.4738 12.0494V15.9221C4.4738 16.1644 4.56807 16.3967 4.73586 16.568C4.90366 16.7393 5.13124 16.8355 5.36854 16.8355ZM14.1012 4.42272L16.6333 7.00758L15.3627 8.30457L12.8306 5.71972L14.1012 4.42272ZM6.26327 12.4239L11.5691 7.00758L14.1012 9.59244L8.79538 15.0088H6.26327V12.4239ZM19.6843 18.6623H3.57906C3.34176 18.6623 3.11418 18.7585 2.94639 18.9298C2.77859 19.1011 2.68433 19.3334 2.68433 19.5756C2.68433 19.8179 2.77859 20.0502 2.94639 20.2215C3.11418 20.3928 3.34176 20.489 3.57906 20.489H19.6843C19.9216 20.489 20.1492 20.3928 20.317 20.2215C20.4848 20.0502 20.5791 19.8179 20.5791 19.5756C20.5791 19.3334 20.4848 19.1011 20.317 18.9298C20.1492 18.7585 19.9216 18.6623 19.6843 18.6623Z" fill="white"/>
</g>
</svg>
