<svg width="8" height="14" viewBox="0 0 8 14" fill="none" xmlns="http://www.w3.org/2000/svg">
<path id="SF Symbol / chevron.right" d="M8.00003 6.99658C8.00003 6.71603 7.89739 6.48337 7.67842 6.26441L2.40952 1.11183C2.23161 0.933919 2.01949 0.851807 1.7663 0.851807C1.2531 0.851807 0.835693 1.25553 0.835693 1.76873C0.835693 2.02191 0.945177 2.25457 1.12993 2.43932L5.81036 6.98974L1.12993 11.5538C0.945177 11.7386 0.835693 11.9644 0.835693 12.2244C0.835693 12.7376 1.2531 13.1482 1.7663 13.1482C2.01949 13.1482 2.23161 13.0592 2.40952 12.8813L7.67842 7.72875C7.90423 7.50978 8.00003 7.27713 8.00003 6.99658Z" fill="#3C3C43" fill-opacity="0.3"/>
</svg>
