<svg width="23" height="14" viewBox="0 0 23 14" fill="none" xmlns="http://www.w3.org/2000/svg">
<path d="M1.85627 2.72126H21.1439C21.6825 2.72126 22.1176 2.27584 22.1176 1.7372C22.1176 1.19855 21.6825 0.763496 21.1439 0.763496H1.85627C1.30727 0.763496 0.882568 1.19855 0.882568 1.7372C0.882568 2.27584 1.31763 2.72126 1.85627 2.72126ZM4.00049 8.07662H19.0411C19.5797 8.07662 20.0148 7.63121 20.0148 7.09256C20.0148 6.54356 19.5901 6.1085 19.0411 6.1085H4.00049C3.45149 6.1085 3.02679 6.55392 3.02679 7.09256C3.02679 7.62085 3.46184 8.07662 4.00049 8.07662ZM6.10327 13.4216H16.9383C17.4873 13.4216 17.912 12.9762 17.912 12.4376C17.912 11.8989 17.4873 11.4639 16.9383 11.4639H6.10327C5.55427 11.4639 5.12957 11.8989 5.12957 12.4376C5.12957 12.9762 5.55427 13.4216 6.10327 13.4216Z" fill="url(#paint0_linear_1385_4455)"/>
<defs>
<linearGradient id="paint0_linear_1385_4455" x1="0.882568" y1="7.09256" x2="22.1176" y2="7.09256" gradientUnits="userSpaceOnUse">
<stop stop-color="#7375C0"/>
<stop offset="1" stop-color="#00A3FF"/>
</linearGradient>
</defs>
</svg>
