<svg width="37" height="37" viewBox="0 0 37 37" fill="none" xmlns="http://www.w3.org/2000/svg">
<path d="M18.4998 30.0405C25.0618 30.0405 30.4972 24.6168 30.4972 18.0432C30.4972 11.4812 25.0618 6.04578 18.4882 6.04578C11.9262 6.04578 6.50244 11.4812 6.50244 18.0432C6.50244 24.6168 11.9378 30.0405 18.4998 30.0405ZM12.867 15.2558C12.2863 15.2558 11.7985 14.768 11.7985 14.1873C11.7985 13.5833 12.2863 13.1072 12.867 13.1072C13.4593 13.1072 13.9355 13.5833 13.9355 14.1873C13.9355 14.7564 13.4477 15.2558 12.867 15.2558ZM15.7821 14.9538C15.364 14.9538 15.0156 14.6054 15.0156 14.1873C15.0156 13.7459 15.3408 13.4091 15.7821 13.4091H24.3766C24.8179 13.4091 25.1663 13.7459 25.1663 14.1873C25.1663 14.617 24.8179 14.9538 24.3766 14.9538H15.7821ZM12.867 19.1233C12.2863 19.1233 11.7985 18.6471 11.7985 18.0548C11.7985 17.4625 12.2863 16.9863 12.867 16.9863C13.4477 16.9863 13.9355 17.4741 13.9355 18.0548C13.9355 18.6355 13.4477 19.1233 12.867 19.1233ZM15.7821 18.8329C15.364 18.8329 15.0156 18.4845 15.0156 18.0548C15.0156 17.6367 15.364 17.2766 15.7821 17.2766H24.3766C24.8179 17.2766 25.1663 17.6251 25.1663 18.0548C25.1663 18.4961 24.8179 18.8329 24.3766 18.8329H15.7821ZM12.867 23.0024C12.2863 23.0024 11.7985 22.5262 11.7985 21.9339C11.7985 21.3416 12.2863 20.8654 12.867 20.8654C13.4477 20.8654 13.9355 21.3532 13.9355 21.9339C13.9355 22.5262 13.4593 23.0024 12.867 23.0024ZM15.7821 22.7004C15.3408 22.7004 15.0156 22.3636 15.0156 21.9339C15.0156 21.5042 15.364 21.1557 15.7821 21.1557H24.3766C24.8179 21.1557 25.1663 21.4926 25.1663 21.9339C25.1663 22.3636 24.8179 22.7004 24.3766 22.7004H15.7821Z" fill="white"/>
</svg>
