<svg width="131" height="56" viewBox="0 0 131 56" fill="none" xmlns="http://www.w3.org/2000/svg">
<g filter="url(#filter0_d_1385_3961)">
<rect x="10" y="6" width="111" height="36" rx="18" fill="#00A3FF" shape-rendering="crispEdges"/>
<path d="M21.1299 29V19.8403H27.0586V21.2178H22.7676V23.6997H26.8237V25.001H22.7676V27.6226H27.0586V29H21.1299ZM31.4258 29.1143C29.6865 29.1143 28.582 27.7368 28.582 25.5405V25.5278C28.582 23.3188 29.6675 21.9478 31.4258 21.9478C32.3779 21.9478 33.1714 22.4175 33.5332 23.1665H33.6411V19.377H35.228V29H33.6411V27.9146H33.5332C33.1523 28.6699 32.4033 29.1143 31.4258 29.1143ZM31.9209 27.7812C33 27.7812 33.6665 26.9307 33.6665 25.5405V25.5278C33.6665 24.1377 32.9937 23.2808 31.9209 23.2808C30.8481 23.2808 30.188 24.1313 30.188 25.5278V25.5405C30.188 26.937 30.8418 27.7812 31.9209 27.7812ZM38.0273 20.9004C37.5068 20.9004 37.0815 20.4878 37.0815 19.9673C37.0815 19.4531 37.5068 19.0342 38.0273 19.0342C38.5415 19.0342 38.9668 19.4531 38.9668 19.9673C38.9668 20.4878 38.5415 20.9004 38.0273 20.9004ZM37.2339 29V22.062H38.8145V29H37.2339ZM43.4863 29.0317C41.8931 29.0317 41.2393 28.4985 41.2393 27.1592V23.2871H40.1602V22.062H41.2393V20.3608H42.8452V22.062H44.3115V23.2871H42.8452V26.7847C42.8452 27.4766 43.1182 27.7686 43.7783 27.7686C44.0005 27.7686 44.1211 27.7622 44.3115 27.7432V28.9619C44.083 29.0063 43.791 29.0317 43.4863 29.0317ZM53.4331 29.2285C50.7798 29.2285 49.1294 27.3813 49.1294 24.4233V24.4106C49.1294 21.4844 50.7988 19.6118 53.4077 19.6118C55.5215 19.6118 57.0449 20.8242 57.356 22.6143L57.3623 22.6777H55.7373L55.7183 22.6143C55.4199 21.6113 54.582 21.0273 53.4077 21.0273C51.8081 21.0273 50.7988 22.3286 50.7988 24.3979V24.4106C50.7988 26.5117 51.8271 27.813 53.4585 27.813C54.855 27.813 55.8071 26.9434 55.8262 25.6421L55.8325 25.4517H53.6362V24.2012H57.4385V25.3438C57.4385 27.7114 55.877 29.2285 53.4331 29.2285ZM59.1777 29V22.062H60.7583V23.1284H60.8662C61.1011 22.3857 61.7358 21.9478 62.6499 21.9478C62.8911 21.9478 63.1387 21.9795 63.291 22.0239V23.4395C63.0371 23.3887 62.7769 23.3506 62.5039 23.3506C61.4502 23.3506 60.7583 23.979 60.7583 24.9692V29H59.1777ZM67.4043 29.1396C65.3223 29.1396 64.0654 27.7812 64.0654 25.5342V25.5215C64.0654 23.2935 65.3413 21.9287 67.4043 21.9287C69.4736 21.9287 70.7432 23.2871 70.7432 25.5215V25.5342C70.7432 27.7812 69.48 29.1396 67.4043 29.1396ZM67.4043 27.8574C68.5024 27.8574 69.1245 27.0005 69.1245 25.5405V25.5278C69.1245 24.0679 68.4961 23.2046 67.4043 23.2046C66.3062 23.2046 65.6777 24.0679 65.6777 25.5278V25.5405C65.6777 27.0005 66.3062 27.8574 67.4043 27.8574ZM75.3071 29.1396C73.2188 29.1396 71.9873 27.7876 71.9873 25.5215V25.5088C71.9873 23.2681 73.2124 21.9287 75.3008 21.9287C77.0845 21.9287 78.1509 22.9189 78.3286 24.3535V24.3789H76.8369L76.8306 24.3599C76.6846 23.687 76.1704 23.2046 75.3071 23.2046C74.228 23.2046 73.5933 24.0552 73.5933 25.5088V25.5215C73.5933 26.9941 74.2344 27.8574 75.3071 27.8574C76.126 27.8574 76.6274 27.4829 76.8242 26.7529L76.8369 26.7275L78.3286 26.7212L78.3159 26.772C78.0874 28.1938 77.0654 29.1396 75.3071 29.1396ZM82.8037 29.1396C80.7407 29.1396 79.4902 27.7559 79.4902 25.5469V25.5405C79.4902 23.3569 80.7534 21.9287 82.7275 21.9287C84.7017 21.9287 85.9204 23.3125 85.9204 25.4072V25.9277H81.0708C81.0898 27.1719 81.7627 27.8955 82.8354 27.8955C83.6924 27.8955 84.1812 27.4639 84.3335 27.1465L84.3525 27.1021H85.8569L85.8379 27.1592C85.6157 28.0542 84.689 29.1396 82.8037 29.1396ZM82.7466 23.1665C81.8643 23.1665 81.2041 23.7632 81.0835 24.8677H84.3779C84.27 23.7314 83.6289 23.1665 82.7466 23.1665ZM87.501 29V22.062H89.0815V23.1284H89.1895C89.4243 22.3857 90.0591 21.9478 90.9731 21.9478C91.2144 21.9478 91.4619 21.9795 91.6143 22.0239V23.4395C91.3604 23.3887 91.1001 23.3506 90.8271 23.3506C89.7734 23.3506 89.0815 23.979 89.0815 24.9692V29H87.501ZM93.7217 20.9004C93.2012 20.9004 92.7759 20.4878 92.7759 19.9673C92.7759 19.4531 93.2012 19.0342 93.7217 19.0342C94.2358 19.0342 94.6611 19.4531 94.6611 19.9673C94.6611 20.4878 94.2358 20.9004 93.7217 20.9004ZM92.9282 29V22.062H94.5088V29H92.9282ZM99.4219 29.1396C97.3589 29.1396 96.1084 27.7559 96.1084 25.5469V25.5405C96.1084 23.3569 97.3716 21.9287 99.3457 21.9287C101.32 21.9287 102.539 23.3125 102.539 25.4072V25.9277H97.689C97.708 27.1719 98.3809 27.8955 99.4536 27.8955C100.311 27.8955 100.799 27.4639 100.952 27.1465L100.971 27.1021H102.475L102.456 27.1592C102.234 28.0542 101.307 29.1396 99.4219 29.1396ZM99.3647 23.1665C98.4824 23.1665 97.8223 23.7632 97.7017 24.8677H100.996C100.888 23.7314 100.247 23.1665 99.3647 23.1665ZM106.741 29.1396C104.976 29.1396 103.91 28.3271 103.776 27.1528V27.1401H105.344L105.351 27.1528C105.516 27.6353 105.979 27.9717 106.766 27.9717C107.553 27.9717 108.099 27.6162 108.099 27.0957V27.083C108.099 26.6768 107.794 26.4102 107.033 26.2388L105.909 25.9849C104.589 25.6929 103.96 25.0708 103.96 24.0488V24.0425C103.96 22.792 105.103 21.9287 106.741 21.9287C108.429 21.9287 109.438 22.7666 109.54 23.8901V23.9028H108.055L108.048 23.8838C107.934 23.4458 107.477 23.0903 106.734 23.0903C106.03 23.0903 105.522 23.4331 105.522 23.9536V23.96C105.522 24.3662 105.814 24.6138 106.563 24.7852L107.687 25.0327C109.045 25.3374 109.686 25.915 109.686 26.9243V26.937C109.686 28.2573 108.448 29.1396 106.741 29.1396Z" fill="white"/>
</g>
<defs>
<filter id="filter0_d_1385_3961" x="0.6" y="0.6" width="129.8" height="54.8" filterUnits="userSpaceOnUse" color-interpolation-filters="sRGB">
<feFlood flood-opacity="0" result="BackgroundImageFix"/>
<feColorMatrix in="SourceAlpha" type="matrix" values="0 0 0 0 0 0 0 0 0 0 0 0 0 0 0 0 0 0 127 0" result="hardAlpha"/>
<feOffset dy="4"/>
<feGaussianBlur stdDeviation="4.7"/>
<feComposite in2="hardAlpha" operator="out"/>
<feColorMatrix type="matrix" values="0 0 0 0 0 0 0 0 0 0.64 0 0 0 0 1 0 0 0 0.21 0"/>
<feBlend mode="normal" in2="BackgroundImageFix" result="effect1_dropShadow_1385_3961"/>
<feBlend mode="normal" in="SourceGraphic" in2="effect1_dropShadow_1385_3961" result="shape"/>
</filter>
</defs>
</svg>
