<svg width="26" height="26" viewBox="0 0 26 26" fill="none" xmlns="http://www.w3.org/2000/svg">
<g id="Profile">
<g id="vuesax/linear/profile">
<g id="profile">
<path id="Vector" d="M13.5011 11.499C13.3979 11.4886 13.2741 11.4886 13.1606 11.499C10.7044 11.4163 8.75392 9.40131 8.75392 6.92131C8.75392 4.38965 10.7973 2.33331 13.336 2.33331C15.8644 2.33331 17.9181 4.38965 17.9181 6.92131C17.9078 9.40131 15.9573 11.4163 13.5011 11.499Z" stroke="#999696" stroke-width="1.5" stroke-linecap="round" stroke-linejoin="round"/>
<path id="Vector_2" d="M8.34111 15.312C5.84367 16.986 5.84367 19.714 8.34111 21.3777C11.1791 23.279 15.8334 23.279 18.6714 21.3777C21.1689 19.7037 21.1689 16.9757 18.6714 15.312C15.8438 13.421 11.1894 13.421 8.34111 15.312Z" stroke="#999696" stroke-width="1.5" stroke-linecap="round" stroke-linejoin="round"/>
</g>
</g>
</g>
</svg>
